<svg width="27" height="29" viewBox="0 0 27 29" fill="none" xmlns="http://www.w3.org/2000/svg">
<path d="M21.0251 18.0315C20.2766 18.0352 19.5384 18.207 18.8652 18.5341C18.1919 18.8612 17.6007 19.3353 17.1351 19.9215L9.82509 15.3515C10.0915 14.4916 10.0915 13.5713 9.82509 12.7115L17.1351 8.14145C17.877 9.06017 18.9202 9.68663 20.0798 9.90986C21.2394 10.1331 22.4406 9.93869 23.4706 9.36108C24.5006 8.78347 25.2929 7.85995 25.7072 6.7541C26.1215 5.64826 26.131 4.43147 25.734 3.31929C25.3371 2.2071 24.5593 1.27131 23.5385 0.677684C22.5176 0.0840551 21.3196 -0.129096 20.1566 0.0759902C18.9937 0.281076 17.9409 0.891162 17.1846 1.79817C16.4284 2.70518 16.0177 3.85058 16.0251 5.03145C16.0298 5.47863 16.0971 5.92295 16.2251 6.35145L8.91509 10.9215C8.26973 10.109 7.38762 9.5175 6.39104 9.22885C5.39445 8.9402 4.33275 8.96872 3.3531 9.31047C2.37345 9.65222 1.52438 10.2903 0.923573 11.1362C0.322771 11.9821 0 12.9939 0 14.0315C0 15.069 0.322771 16.0809 0.923573 16.9268C1.52438 17.7726 2.37345 18.4107 3.3531 18.7524C4.33275 19.0942 5.39445 19.1227 6.39104 18.8341C7.38762 18.5454 8.26973 17.9539 8.91509 17.1415L16.2251 21.7115C16.0971 22.14 16.0298 22.5843 16.0251 23.0315C16.0251 24.0204 16.3183 24.9871 16.8677 25.8093C17.4171 26.6316 18.198 27.2724 19.1117 27.6509C20.0253 28.0293 21.0306 28.1283 22.0005 27.9354C22.9704 27.7425 23.8614 27.2663 24.5606 26.567C25.2599 25.8677 25.7361 24.9768 25.929 24.0069C26.1219 23.037 26.0229 22.0317 25.6445 21.118C25.266 20.2044 24.6252 19.4235 23.8029 18.8741C22.9807 18.3247 22.014 18.0315 21.0251 18.0315ZM21.0251 2.03145C21.6184 2.03145 22.1984 2.2074 22.6918 2.53705C23.1851 2.86669 23.5697 3.33523 23.7967 3.8834C24.0238 4.43158 24.0832 5.03478 23.9674 5.61672C23.8517 6.19867 23.566 6.73322 23.1464 7.15277C22.7268 7.57233 22.1923 7.85805 21.6104 7.97381C21.0284 8.08957 20.4252 8.03016 19.877 7.80309C19.3289 7.57603 18.8603 7.19151 18.5307 6.69816C18.201 6.20482 18.0251 5.6248 18.0251 5.03145C18.0251 4.2358 18.3412 3.47274 18.9038 2.91013C19.4664 2.34752 20.2294 2.03145 21.0251 2.03145ZM5.02509 17.0315C4.43174 17.0315 3.85172 16.8555 3.35838 16.5259C2.86503 16.1962 2.48051 15.7277 2.25345 15.1795C2.02638 14.6313 1.96697 14.0281 2.08273 13.4462C2.19849 12.8642 2.48421 12.3297 2.90377 11.9101C3.32332 11.4906 3.85787 11.2049 4.43982 11.0891C5.02176 10.9733 5.62496 11.0328 6.17314 11.2598C6.72131 11.4869 7.18985 11.8714 7.5195 12.3647C7.84914 12.8581 8.02509 13.4381 8.02509 14.0315C8.02509 14.8271 7.70902 15.5902 7.14641 16.1528C6.5838 16.7154 5.82074 17.0315 5.02509 17.0315ZM21.0251 26.0315C20.4317 26.0315 19.8517 25.8555 19.3584 25.5259C18.865 25.1962 18.4805 24.7277 18.2534 24.1795C18.0264 23.6313 17.967 23.0281 18.0827 22.4462C18.1985 21.8642 18.4842 21.3297 18.9038 20.9101C19.3233 20.4906 19.8579 20.2049 20.4398 20.0891C21.0218 19.9733 21.625 20.0328 22.1731 20.2598C22.7213 20.4869 23.1898 20.8714 23.5195 21.3647C23.8491 21.8581 24.0251 22.4381 24.0251 23.0315C24.0251 23.8271 23.709 24.5902 23.1464 25.1528C22.5838 25.7154 21.8207 26.0315 21.0251 26.0315Z" fill="#F9A72D"/>
</svg>
