<svg width="48" height="48" viewBox="0 0 48 48" fill="none" xmlns="http://www.w3.org/2000/svg">
<path d="M2.32 32.932C2.418 32.932 2.5 32.854 2.516 32.746L3.056 28.702L2.516 24.564C2.51118 24.5143 2.48843 24.468 2.452 24.4337C2.41558 24.3995 2.36795 24.3797 2.318 24.378C2.218 24.378 2.13 24.458 2.118 24.564L1.646 28.702L2.118 32.744C2.13 32.854 2.218 32.932 2.318 32.932H2.32ZM0.544 31.394C0.64 31.394 0.72 31.322 0.734 31.214L1.152 28.702L0.734 26.142C0.72 26.036 0.64 25.962 0.544 25.962C0.442 25.962 0.364 26.036 0.348 26.142L0 28.702L0.348 31.214C0.364 31.32 0.442 31.394 0.544 31.394ZM4.44 23.794C4.43598 23.7328 4.40905 23.6753 4.36458 23.6331C4.3201 23.5908 4.26134 23.5669 4.2 23.566C4.13872 23.5664 4.07993 23.5903 4.03567 23.6327C3.99142 23.6751 3.96506 23.7328 3.962 23.794L3.514 28.702L3.962 33.43C3.96606 33.4908 3.99313 33.5478 4.03771 33.5895C4.08229 33.6311 4.14103 33.6541 4.202 33.654C4.26316 33.6536 4.32191 33.6301 4.36643 33.5882C4.41096 33.5463 4.43796 33.489 4.442 33.428L4.95 28.702L4.442 23.794H4.44ZM6.104 33.844C6.17515 33.8427 6.24327 33.815 6.29504 33.7661C6.34682 33.7173 6.37854 33.651 6.384 33.58L6.866 28.702L6.386 23.658C6.3805 23.5867 6.3485 23.5201 6.29631 23.4712C6.24411 23.4223 6.1755 23.3948 6.104 23.394C6.0321 23.3939 5.96293 23.4215 5.9108 23.471C5.85867 23.5205 5.82759 23.5882 5.824 23.66L5.398 28.702L5.822 33.58C5.82561 33.6522 5.85697 33.7201 5.90952 33.7697C5.96208 33.8193 6.03176 33.8466 6.104 33.846V33.844ZM8.02 33.924C8.10258 33.9242 8.18209 33.8928 8.24231 33.8363C8.30253 33.7798 8.3389 33.7024 8.344 33.62L8.796 28.702L8.344 24.022C8.33842 23.9399 8.30183 23.8631 8.24166 23.807C8.18149 23.7509 8.10225 23.7198 8.02 23.72C7.93783 23.7199 7.85877 23.7514 7.7992 23.808C7.73963 23.8646 7.70411 23.9419 7.7 24.024L7.3 28.704L7.7 33.62C7.70411 33.7021 7.73963 33.7794 7.7992 33.836C7.85877 33.8926 7.93783 33.9241 8.02 33.924ZM10.74 28.704L10.316 21.094C10.3104 21.0009 10.2698 20.9135 10.2022 20.8493C10.1346 20.785 10.0452 20.7488 9.952 20.748C9.85864 20.7484 9.76896 20.7844 9.70129 20.8487C9.63363 20.913 9.5931 21.0008 9.588 21.094L9.212 28.704L9.588 33.62C9.59744 33.71 9.63986 33.7932 9.70708 33.8538C9.7743 33.9143 9.86155 33.9478 9.952 33.9478C10.0425 33.9478 10.1297 33.9143 10.1969 33.8538C10.2641 33.7932 10.3066 33.71 10.316 33.62L10.74 28.704ZM11.902 33.974C12.0056 33.9741 12.1052 33.9342 12.1801 33.8627C12.255 33.7912 12.2994 33.6935 12.304 33.59V33.594L12.702 28.706L12.304 19.354C12.2968 19.2515 12.251 19.1556 12.1758 19.0855C12.1007 19.0154 12.0017 18.9765 11.899 18.9765C11.7963 18.9765 11.6973 19.0154 11.6222 19.0855C11.547 19.1556 11.5012 19.2515 11.494 19.354L11.146 28.706L11.496 33.592C11.5017 33.6955 11.5471 33.7927 11.6227 33.8635C11.6983 33.9343 11.7984 33.9732 11.902 33.972V33.974ZM13.862 18.152C13.7473 18.1514 13.6368 18.1952 13.5536 18.2742C13.4705 18.3532 13.4212 18.4614 13.416 18.576L13.092 28.706L13.416 33.542C13.4212 33.6564 13.4706 33.7644 13.5538 33.8431C13.637 33.9218 13.7475 33.9652 13.862 33.964C13.9767 33.9657 14.0875 33.9225 14.1708 33.8437C14.2541 33.7648 14.3033 33.6566 14.308 33.542L14.678 28.706L14.308 18.576C14.3038 18.4611 14.2548 18.3523 14.1715 18.2731C14.0881 18.1938 13.977 18.1504 13.862 18.152ZM15.84 33.974C15.966 33.9762 16.0877 33.9287 16.179 33.8419C16.2703 33.7551 16.3238 33.6359 16.328 33.51V33.514L16.668 28.706L16.328 18.236C16.3238 18.1104 16.2706 17.9915 16.1797 17.9048C16.0889 17.818 15.9676 17.7704 15.842 17.772C15.7161 17.7693 15.5942 17.8166 15.5032 17.9036C15.4121 17.9906 15.3591 18.1101 15.356 18.236L15.05 28.706L15.356 33.514C15.36 33.772 15.576 33.974 15.842 33.974H15.84ZM17.836 33.97C17.9722 33.9716 18.1036 33.9198 18.202 33.8255C18.3004 33.7313 18.3578 33.6022 18.362 33.466V33.47L18.676 28.708L18.362 18.502C18.3568 18.3665 18.2989 18.2385 18.2006 18.1451C18.1024 18.0517 17.9716 18.0003 17.836 18.002C17.7001 17.9998 17.5688 18.0509 17.4701 18.1444C17.3714 18.2378 17.3132 18.3662 17.308 18.502L17.032 28.708L17.31 33.468C17.316 33.748 17.548 33.968 17.836 33.968V33.97ZM20.698 28.708L20.414 18.874C20.4088 18.7276 20.3464 18.589 20.2402 18.4881C20.134 18.3871 19.9925 18.3318 19.846 18.334C19.6988 18.3313 19.5565 18.3866 19.4498 18.4881C19.3432 18.5895 19.2807 18.7289 19.276 18.876L19.022 28.708L19.276 33.44C19.2812 33.5868 19.3439 33.7256 19.4505 33.8266C19.5571 33.9276 19.6992 33.9827 19.846 33.98C19.9935 33.9822 20.1359 33.926 20.2423 33.8238C20.3486 33.7215 20.4103 33.5815 20.414 33.434V33.44L20.698 28.708ZM21.87 33.988C22.2 33.988 22.472 33.728 22.478 33.408L22.736 28.71L22.478 17.01C22.4728 16.8528 22.4062 16.7039 22.2926 16.5951C22.179 16.4863 22.0273 16.4263 21.87 16.428C21.7127 16.4268 21.561 16.4869 21.4472 16.5955C21.3334 16.7041 21.2662 16.8528 21.26 17.01L21.03 28.706L21.26 33.41C21.266 33.726 21.54 33.988 21.87 33.988ZM23.888 15.328C23.7196 15.3253 23.5567 15.3886 23.4345 15.5046C23.3122 15.6205 23.2403 15.7797 23.234 15.948L22.968 28.712L23.236 33.342C23.2423 33.5093 23.3138 33.6675 23.4353 33.7826C23.5568 33.8978 23.7186 33.9607 23.886 33.958C24.054 33.9602 24.2162 33.8961 24.3374 33.7798C24.4587 33.6634 24.5293 33.504 24.534 33.336V33.342L24.826 28.712L24.534 15.95C24.5293 15.7824 24.459 15.6233 24.3382 15.5069C24.2173 15.3906 24.0557 15.3264 23.888 15.328ZM25.732 33.992L42.094 34C45.356 34 48 31.464 48 28.334C48 25.206 45.356 22.67 42.094 22.67C41.286 22.67 40.514 22.828 39.81 23.11C39.344 18.006 34.88 14 29.436 14C28.106 14 26.808 14.252 25.662 14.678C25.216 14.844 25.096 15.014 25.092 15.344V33.322C25.0983 33.4926 25.1669 33.655 25.2848 33.7785C25.4027 33.902 25.5618 33.9779 25.732 33.992Z" fill="white"/>
</svg>
