<svg width="42" height="30" viewBox="0 0 42 30" fill="none" xmlns="http://www.w3.org/2000/svg">
<path d="M41.1234 4.87969C40.8843 3.98924 40.4156 3.17721 39.7641 2.52486C39.1125 1.8725 38.3011 1.40271 37.4109 1.1625C34.1344 0.28125 21 0.28125 21 0.28125C21 0.28125 7.86562 0.28125 4.58906 1.15781C3.69853 1.39725 2.88668 1.86678 2.23503 2.51925C1.58338 3.17172 1.11487 3.98417 0.876562 4.875C-1.78814e-07 8.15625 0 15 0 15C0 15 -1.78814e-07 21.8438 0.876562 25.1203C1.35937 26.9297 2.78437 28.3547 4.58906 28.8375C7.86562 29.7188 21 29.7188 21 29.7188C21 29.7188 34.1344 29.7188 37.4109 28.8375C39.2203 28.3547 40.6406 26.9297 41.1234 25.1203C42 21.8438 42 15 42 15C42 15 42 8.15625 41.1234 4.87969ZM16.8281 21.2812V8.71875L27.7031 14.9531L16.8281 21.2812Z" fill="white"/>
</svg>
