<svg width="48" height="48" viewBox="0 0 48 48" fill="none" xmlns="http://www.w3.org/2000/svg">
<g clip-path="url(#clip0_909_1362)">
<path d="M47.9927 12.2505C47.9927 10.7745 47.8682 9.3045 47.5157 7.8675C46.8827 5.25 45.3902 3.2505 43.1567 1.782C42.0077 1.032 40.7432 0.5715 39.3992 0.3285C38.3671 0.147926 37.3224 0.0486215 36.2747 0.0315C36.1967 0.024 36.1112 0.0075 36.0242 0H11.9777C11.6732 0.024 11.3687 0.039 11.0642 0.054C9.57174 0.1395 8.08824 0.2955 6.68124 0.858C4.00974 1.9125 2.07924 3.756 0.954242 6.4125C0.564242 7.311 0.367742 8.2635 0.228242 9.2325C0.111242 10.014 0.0482422 10.803 0.0257422 11.592C0.0257422 11.655 0.0107422 11.7165 0.0107422 11.7795V36.225L0.0572422 37.0695C0.159242 38.703 0.369242 40.32 1.05774 41.82C2.35524 44.6565 4.53474 46.5225 7.52724 47.421C8.36274 47.679 9.23874 47.796 10.1132 47.874C11.2232 47.9835 12.3317 47.9985 13.4417 47.9985H35.5037C36.5507 47.9985 37.5977 47.928 38.6447 47.796C40.2932 47.5845 41.8397 47.1 43.2392 46.179C44.8958 45.1058 46.202 43.5712 46.9967 41.7645C47.3717 40.92 47.5832 40.023 47.7392 39.1155C47.9657 37.764 48.0122 36.396 48.0122 35.0295C48.0047 27.435 48.0122 19.842 48.0047 12.2475L47.9927 12.2505ZM35.1482 20.226V31.6485C35.1482 32.484 35.0312 33.3045 34.6562 34.062C34.0787 35.241 33.1412 35.9835 31.8827 36.3435C31.1856 36.5433 30.4669 36.6586 29.7422 36.687C28.8309 36.7409 27.9317 36.4578 27.2156 35.8916C26.4995 35.3254 26.0165 34.5156 25.8587 33.6165C25.7142 32.8075 25.8391 31.9735 26.2144 31.2424C26.5897 30.5113 27.1946 29.9236 27.9362 29.5695C28.5767 29.2575 29.2727 29.07 29.9672 28.929C30.7247 28.7655 31.4822 28.617 32.2322 28.4445C32.7872 28.32 33.1457 27.984 33.2552 27.4125C33.2867 27.288 33.2942 27.1545 33.2942 27.03V16.14C33.2915 16.0157 33.2734 15.8923 33.2402 15.7725C33.1622 15.468 32.9432 15.288 32.6312 15.303C32.3102 15.318 31.9982 15.3735 31.6862 15.4365C30.1622 15.7335 28.6397 16.038 27.1232 16.35L19.7252 17.8425C19.6937 17.85 19.6547 17.8665 19.6232 17.8665C19.0682 18.0225 18.8732 18.273 18.8492 18.8505C18.8417 18.936 18.8492 19.023 18.8492 19.1085C18.8417 24.312 18.8492 29.5155 18.8417 34.7175C18.8417 35.562 18.7472 36.39 18.4127 37.17C17.8577 38.451 16.8737 39.2565 15.5462 39.639C14.8444 39.8433 14.1198 39.9587 13.3892 39.9825C11.4752 40.053 9.88074 38.7795 9.55374 36.897C9.27174 35.2725 10.0142 33.522 11.8577 32.7405C12.5762 32.4435 13.3187 32.28 14.0762 32.124L15.7952 31.773C16.5602 31.6095 16.9592 31.125 16.9982 30.3435V12.2805C16.9982 12.03 17.0297 11.781 17.0837 11.538C17.2247 10.968 17.6312 10.6395 18.1772 10.506C18.6857 10.3725 19.2092 10.2795 19.7237 10.17C21.1922 9.873 22.6532 9.576 24.1217 9.2865L28.6607 8.364C30.0047 8.0985 31.3397 7.8255 32.6837 7.56C33.1217 7.4745 33.5672 7.38 34.0112 7.3485C34.6277 7.2945 35.0582 7.6845 35.1212 8.31C35.1362 8.4585 35.1452 8.607 35.1452 8.7555V20.217L35.1482 20.226Z" fill="white"/>
</g>
<defs>
<clipPath id="clip0_909_1362">
<rect width="48" height="48" fill="white"/>
</clipPath>
</defs>
</svg>
