<svg width="491" height="853" viewBox="0 0 491 853" fill="none" xmlns="http://www.w3.org/2000/svg">
<path d="M18.752 833.297C6.75387 821.295 0.0136719 805.019 0.0136719 788.049C0.0136719 771.078 6.75387 754.803 18.752 742.801L335.552 426.001L18.752 109.201C7.0939 97.1303 0.64303 80.9637 0.788849 64.1831C0.934668 47.4025 7.6655 31.3505 19.5316 19.4844C31.3977 7.61826 47.4497 0.887518 64.2303 0.741699C81.0109 0.59588 97.1774 7.04672 109.248 18.7048L471.296 380.753C483.294 392.755 490.034 409.03 490.034 426.001C490.034 442.971 483.294 459.247 471.296 471.249L109.248 833.297C97.2462 845.295 80.9705 852.035 64 852.035C47.0295 852.035 30.7538 845.295 18.752 833.297V833.297Z" fill="white"/>
</svg>
