<svg width="48" height="48" viewBox="0 0 48 48" fill="none" xmlns="http://www.w3.org/2000/svg">
<g clip-path="url(#clip0_909_1358)">
<path d="M24 0C17.6348 0 11.5303 2.52856 7.02944 7.02944C2.52856 11.5303 0 17.6348 0 24C0 30.3652 2.52856 36.4697 7.02944 40.9706C11.5303 45.4714 17.6348 48 24 48C30.3652 48 36.4697 45.4714 40.9706 40.9706C45.4714 36.4697 48 30.3652 48 24C48 17.6348 45.4714 11.5303 40.9706 7.02944C36.4697 2.52856 30.3652 0 24 0V0ZM35.007 34.614C34.9046 34.7819 34.7701 34.9279 34.6112 35.0438C34.4522 35.1596 34.272 35.2428 34.0808 35.2888C33.8896 35.3348 33.6912 35.3426 33.497 35.3117C33.3027 35.2809 33.1165 35.212 32.949 35.109C27.312 31.668 20.22 30.888 11.865 32.799C11.4779 32.8873 11.0716 32.8182 10.7354 32.607C10.3993 32.3957 10.1608 32.0596 10.0725 31.6725C9.98418 31.2854 10.0533 30.8791 10.2645 30.5429C10.4758 30.2068 10.8119 29.9683 11.199 29.88C20.343 27.792 28.185 28.689 34.509 32.556C34.8474 32.7634 35.0898 33.0964 35.1831 33.4821C35.2765 33.8679 35.2131 34.2749 35.007 34.614ZM37.944 28.08C37.6841 28.5027 37.267 28.805 36.7843 28.9203C36.3016 29.0356 35.7929 28.9546 35.37 28.695C28.92 24.732 19.086 23.583 11.454 25.899C10.9895 26.0094 10.5003 25.9384 10.0863 25.7005C9.67234 25.4626 9.3647 25.0757 9.22617 24.6188C9.08763 24.1619 9.12864 23.6693 9.34082 23.2416C9.553 22.8138 9.92037 22.4832 10.368 22.317C19.083 19.674 29.919 20.955 37.326 25.506C37.7492 25.7654 38.0521 26.1823 38.168 26.665C38.2839 27.1477 38.2033 27.6567 37.944 28.08ZM38.196 21.276C30.462 16.68 17.7 16.257 10.314 18.498C9.74432 18.6707 9.12938 18.6099 8.60446 18.3292C8.07955 18.0485 7.68766 17.5707 7.515 17.001C7.34234 16.4313 7.40307 15.8164 7.68381 15.2915C7.96455 14.7665 8.44232 14.3747 9.012 14.202C17.487 11.631 31.581 12.126 40.488 17.412C41.0004 17.7159 41.3711 18.211 41.5185 18.7882C41.6659 19.3655 41.5779 19.9776 41.274 20.49C40.9701 21.0024 40.475 21.3731 39.8978 21.5205C39.3205 21.6679 38.7084 21.5799 38.196 21.276Z" fill="white"/>
</g>
<defs>
<clipPath id="clip0_909_1358">
<rect width="48" height="48" fill="white"/>
</clipPath>
</defs>
</svg>
