<svg width="54" height="54" viewBox="0 0 54 54" fill="none" xmlns="http://www.w3.org/2000/svg">
<path d="M43.6234 15.1071V15.1084C43.1575 15.1661 42.3961 17.6922 41.9123 17.6922C35.618 17.6922 28.2378 10.8618 28.2378 4.56735C28.2378 4.21825 30.816 3.10639 30.8476 2.76562H30.849C31.7134 2.94703 32.5696 3.24941 33.3929 3.6754C34.8167 4.41062 35.989 5.44 36.8768 6.65078C37.6781 6.65078 38.3859 6.74011 39.0112 6.90232C44.459 8.30136 43.6234 15.1071 43.6234 15.1071Z" fill="#828282"/>
<path d="M46.0407 24.3672C48.5227 25.101 50.3341 27.4004 50.3341 30.1201C50.3341 32.8481 48.5131 35.1528 46.0187 35.8798C46.0338 35.5747 43.6302 35.2682 43.6302 34.9605L42.5308 30.1201L46.0407 24.3672Z" fill="white"/>
<path d="M46.0406 30.1198V34.9601C46.0406 35.268 46.0338 35.5745 46.0187 35.8795C45.7259 42.0282 42.5169 47.4142 37.7453 50.681C37.7041 50.7113 37.6615 50.7387 37.6202 50.7676C34.587 52.8084 30.934 54 27.0008 54C23.0675 54 19.4145 52.8084 16.3814 50.7676C16.3401 50.7387 16.2975 50.7113 16.2563 50.681C11.4846 47.4142 8.27555 42.0282 7.98288 35.8795C7.96779 35.5744 7.96094 35.2679 7.96094 34.9601V30.1198V24.3669V19.04C7.96094 13.7832 10.0926 9.02254 13.5379 5.57708C16.9833 2.13163 21.7425 0 27.0008 0C28.4768 0 29.913 0.167695 31.2915 0.485156C31.0702 1.21627 30.9191 1.97902 30.8476 2.76518C30.8159 3.10605 30.8008 3.45094 30.8008 3.80004C30.8008 10.0944 35.9037 15.1959 42.1981 15.1959C42.6819 15.1959 43.1573 15.1657 43.6233 15.108C44.2816 15.0255 44.9234 14.8867 45.5432 14.6971C45.8676 16.092 46.0407 17.5461 46.0407 19.04V24.3669V30.1198H46.0406Z" fill="white"/>
<path d="M7.98275 35.8798H7.98138C5.48831 35.1528 3.66602 32.848 3.66602 30.1201C3.66602 27.4003 5.47734 25.101 7.96081 24.3672L10.6463 30.1201L10.5088 34.9605C10.5088 35.2682 7.96767 35.5747 7.98275 35.8798Z" fill="white"/>
<path d="M15.4082 28.8203H25.5576L19.9229 30.4735" fill="white"/>
<path d="M20.209 28.8203C20.209 28.8203 20.5443 35.1422 15.0347 37.6105C15.0347 37.6105 18.8924 33.9095 16.5561 30.6111" fill="white"/>
<path d="M23.3901 50.7676C23.3488 50.7387 23.3062 50.7113 23.265 50.681C18.4934 47.4142 15.2843 42.0282 14.9916 35.8795C14.9765 35.5744 14.9696 35.2679 14.9696 34.9601V30.1198V24.3669V19.04C14.9696 13.7832 17.1013 9.02254 20.5466 5.57708C23.2073 2.91642 26.6518 1.04045 30.5041 0.323262C29.3688 0.112113 28.1983 0 27.0009 0C21.7427 0 16.9835 2.13163 13.538 5.57698C10.0926 9.02232 7.96094 13.7831 7.96094 19.04V24.3669V30.1198V34.9601C7.96094 35.268 7.96779 35.5745 7.98288 35.8795C8.27566 42.0282 11.4846 47.4142 16.2563 50.681C16.2975 50.7113 16.3401 50.7387 16.3813 50.7676C19.4145 52.8084 23.0675 54 27.0009 54C28.1984 54 29.3693 53.8881 30.5053 53.6768C27.9099 53.1943 25.4998 52.1871 23.3901 50.7676Z" fill="white"/>
<path d="M14.1712 28.8203H20.2086C20.2086 31.044 18.4055 32.8471 16.1818 32.8471C14.8515 32.8471 13.6723 32.2026 12.9385 31.2089C12.2101 30.2194 12.9426 28.8203 14.1712 28.8203Z" fill="black"/>
<path d="M39.0108 6.90378C38.8775 8.58316 38.4377 9.84214 38.4377 9.84214C38.112 8.7015 37.5856 7.61981 36.8765 6.65234C37.6778 6.65224 38.3855 6.74157 39.0108 6.90378Z" fill="#D6D6D6"/>
<path d="M14.027 16.0612C13.8687 16.0612 13.7105 16.0008 13.5898 15.8801C13.3483 15.6387 13.3483 15.2469 13.5898 15.0054L20.3061 8.29044C20.5477 8.04902 20.9391 8.04902 21.1808 8.29044C21.4222 8.53186 21.4222 8.92357 21.1808 9.16509L14.4644 15.8801C14.3435 16.0008 14.1853 16.0612 14.027 16.0612Z" fill="black"/>
<path d="M20.106 12.6024C19.9477 12.6024 19.7895 12.5421 19.6688 12.4213L17.0492 9.80177C16.8078 9.56014 16.8078 9.16864 17.0492 8.92712C17.2909 8.6857 17.6823 8.68581 17.9239 8.92712L20.5433 11.5465C20.7847 11.788 20.7847 12.1796 20.5433 12.4212C20.4225 12.5421 20.2643 12.6024 20.106 12.6024Z" fill="white"/>
<path d="M17.2844 15.4228C17.1261 15.4228 16.9679 15.3625 16.8471 15.2417L14.2287 12.622C13.9874 12.3803 13.9875 11.9888 14.2292 11.7473C14.4708 11.506 14.8623 11.5061 15.1038 11.7477L17.7217 14.3669C17.9631 14.6083 17.9631 15.0001 17.7217 15.2416C17.6009 15.3625 17.4427 15.4228 17.2844 15.4228Z" fill="white"/>
<path d="M33.7925 28.8203C33.7925 28.8203 33.4571 35.1422 38.9668 37.6105C38.9668 37.6105 35.1091 33.9095 37.4454 30.6111" fill="white"/>
<path d="M23.9249 26.2685H14.1714C13.6022 26.2685 13.1406 25.807 13.1406 25.2378C13.1406 24.6686 13.6022 24.207 14.1714 24.207H23.9249C24.4941 24.207 24.9557 24.6686 24.9557 25.2378C24.9557 25.807 24.4941 26.2685 23.9249 26.2685Z" fill="black"/>
<path d="M39.8302 26.2685H30.0752C29.506 26.2685 29.0444 25.807 29.0444 25.2378C29.0444 24.6686 29.506 24.207 30.0752 24.207H39.8302C40.3994 24.207 40.8609 24.6686 40.8609 25.2378C40.8609 25.807 40.3994 26.2685 39.8302 26.2685Z" fill="black"/>
<path d="M31.9758 36.2867H27.2143C26.8218 36.2867 26.4903 35.9955 26.4397 35.6063L25.5576 28.8203L24.8849 37.1974C24.8414 37.74 25.3522 38.1597 25.8759 38.0115L31.9758 36.2867Z" fill="white"/>
<path d="M39.8301 28.8203H29.6807L35.3154 30.4735" fill="white"/>
<path d="M41.0625 31.2089C40.3287 32.2025 39.1495 32.8471 37.8192 32.8471C35.9776 32.8471 34.4246 31.6102 33.9464 29.9226C33.8461 29.5721 33.7925 29.2024 33.7925 28.8203H39.8299C40.5597 28.8203 41.115 29.3137 41.2923 29.9226C41.413 30.3389 41.3581 30.8076 41.0625 31.2089Z" fill="black"/>
<path d="M41.2922 29.9226H33.9464C33.8461 29.5721 33.7925 29.2024 33.7925 28.8203H39.8299C40.5597 28.8204 41.1149 29.3138 41.2922 29.9226Z" fill="black"/>
<path d="M12.709 29.9226H20.0548C20.1551 29.5721 20.2087 29.2024 20.2087 28.8203H14.1712C13.4415 28.8204 12.8863 29.3138 12.709 29.9226Z" fill="black"/>
<path d="M32.0898 41.8889C32.9446 42.9059 32.8306 44.2473 32.1228 45.1543C32.1132 45.1392 32.1009 45.1254 32.0884 45.1117C30.8694 43.6632 29.0429 42.7423 27.0007 42.7423C24.9585 42.7423 23.1306 43.6632 21.9116 45.1117C21.9007 45.1254 21.8882 45.1379 21.8773 45.1529C21.1708 44.2459 21.0568 42.9046 21.9116 41.8889C23.132 40.4404 24.9585 39.5195 27.0007 39.5195C29.0429 39.5195 30.8694 40.4404 32.0898 41.8889Z" fill="#F2F2F2"/>
<path d="M32.0886 45.1154C32.101 45.1292 32.1134 45.143 32.123 45.1581C31.6544 45.76 30.9246 46.171 30.045 46.171H23.9568C23.0758 46.171 22.346 45.7587 21.8774 45.1567C21.8884 45.1416 21.9009 45.1292 21.9118 45.1154C23.1308 43.6669 24.9587 42.7461 27.0009 42.7461C29.0431 42.7461 30.8696 43.6669 32.0886 45.1154Z" fill="black"/>
<path d="M30.045 49.9808C29.6656 49.9808 29.3579 49.6731 29.3579 49.2937V46.1712C29.3579 45.7917 29.6657 45.4841 30.045 45.4841C30.4245 45.4841 30.7322 44.9384 30.7322 45.3178V49.2937C30.7323 49.6732 30.4245 49.9808 30.045 49.9808Z" fill="black"/>
</svg>
